<svg width="115" height="25" viewBox="0 0 115 25" fill="none" xmlns="http://www.w3.org/2000/svg">
<path d="M1.127 6.293C1.127 6.017 1.22667 5.879 1.426 5.879C1.73267 5.879 2.047 5.948 2.369 6.086C2.691 6.20867 3.036 6.30833 3.404 6.385C4.63067 3.763 6.04133 2.05333 7.636 1.256C8.188 0.979999 8.74 0.841999 9.292 0.841999C10.3193 0.857332 11.0093 1.10267 11.362 1.578C11.73 2.05333 11.914 2.66667 11.914 3.418C11.8987 4.844 11.2853 5.971 10.074 6.799C8.86267 7.61167 7.383 8.064 5.635 8.156C5.19033 9.33667 4.84533 10.594 4.6 11.928C5.198 11.698 5.96467 11.583 6.9 11.583C7.02267 12.549 7.23733 13.239 7.544 13.653C7.85067 14.067 8.188 14.274 8.556 14.274C8.93933 14.274 9.25367 14.182 9.499 13.998C9.75967 13.814 9.982 13.607 10.166 13.377C10.3653 13.147 10.5263 12.94 10.649 12.756C10.787 12.572 10.9173 12.48 11.04 12.48C11.3007 12.48 11.431 12.71 11.431 13.17C11.431 14.09 11.201 14.8567 10.741 15.47C10.281 16.068 9.57567 16.367 8.625 16.367C7.13767 16.367 6.07967 15.976 5.451 15.194C5.78833 18.5673 5.957 20.576 5.957 21.22C5.957 22.37 5.59667 23.1903 4.876 23.681C4.278 24.095 3.51133 24.302 2.576 24.302C1.656 24.302 1.012 24.0873 0.644 23.658C0.291333 23.244 0.115 22.7457 0.115 22.163C0.115 18.4677 0.644 14.7493 1.702 11.008C2.03933 9.812 2.42267 8.69267 2.852 7.65C1.702 7.144 1.127 6.69167 1.127 6.293ZM3.427 22.531C3.611 22.531 3.77967 22.3853 3.933 22.094C4.08633 21.818 4.163 21.519 4.163 21.197C4.163 20.139 4.01733 18.5137 3.726 16.321C3.34267 17.9003 3.082 19.472 2.944 21.036C2.91333 21.3733 2.898 21.5803 2.898 21.657C2.898 22.2397 3.07433 22.531 3.427 22.531ZM9.108 3.119C8.80133 3.119 8.37967 3.41033 7.843 3.993C7.32167 4.57567 6.785 5.465 6.233 6.661C7.35233 6.17033 8.08833 5.79467 8.441 5.534C9.16167 5.028 9.522 4.42233 9.522 3.717C9.522 3.31833 9.384 3.119 9.108 3.119ZM16.5598 18.069C14.3672 18.0843 12.8722 17.264 12.0748 15.608C11.7988 15.0253 11.6608 14.297 11.6608 13.423C11.6608 12.5337 11.7375 11.5907 11.8908 10.594C12.1975 8.60067 12.7878 6.76067 13.6618 5.074C14.1065 4.21533 14.6048 3.47933 15.1568 2.866C16.3682 1.51667 17.7175 0.849665 19.2048 0.864999C19.8642 0.864999 20.3778 1.049 20.7458 1.417C21.1292 1.76967 21.3208 2.28333 21.3208 2.958C21.3208 3.63267 21.1215 4.315 20.7228 5.005C20.3242 5.67967 19.8105 6.385 19.1818 7.121C18.5685 7.84167 17.8862 8.60067 17.1348 9.398C16.3835 10.1953 15.6475 11.0617 14.9268 11.997V12.917C14.9268 13.7757 15.1108 14.4043 15.4788 14.803C15.8468 15.2017 16.2762 15.401 16.7668 15.401C18.0855 15.401 19.2508 14.7493 20.2628 13.446C20.6768 12.9093 20.9912 12.641 21.2058 12.641C21.4205 12.641 21.5278 12.9017 21.5278 13.423C21.5278 13.9443 21.3822 14.481 21.0908 15.033C20.8148 15.5697 20.4468 16.068 19.9868 16.528C19.5268 16.9727 18.9978 17.3407 18.3998 17.632C17.8018 17.9233 17.1885 18.069 16.5598 18.069ZM17.8018 5.718C18.1238 5.31933 18.3768 4.959 18.5608 4.637C18.7448 4.315 18.8368 3.98533 18.8368 3.648C18.8368 3.29533 18.7142 3.119 18.4688 3.119C17.9322 3.119 17.3342 3.671 16.6748 4.775C16.0308 5.879 15.5478 7.328 15.2258 9.122C15.7472 8.32467 16.2225 7.65767 16.6518 7.121C17.0965 6.58433 17.4798 6.11667 17.8018 5.718ZM35.4401 12.572C35.7161 12.572 35.8541 12.9247 35.8541 13.63C35.8541 14.0133 35.6931 14.481 35.3711 15.033C35.0491 15.5697 34.6275 16.068 34.1061 16.528C33.6001 16.9727 33.0328 17.3407 32.4041 17.632C31.7755 17.9233 31.1621 18.069 30.5641 18.069C29.7515 18.069 29.2071 17.356 28.9311 15.93C28.5325 16.5893 28.0111 17.1337 27.3671 17.563C26.7231 17.977 25.8568 18.184 24.7681 18.184C23.6948 18.184 22.8285 17.8467 22.1691 17.172C21.5098 16.4973 21.1878 15.677 21.2031 14.711C21.2031 12.1043 22.0695 10.0497 23.8021 8.547C24.5381 7.91833 25.2205 7.50433 25.8491 7.305C26.4931 7.10567 27.1678 7.006 27.8731 7.006C28.5785 7.006 29.1535 7.12867 29.5981 7.374C29.8128 6.92933 30.0581 6.707 30.3341 6.707C30.8708 6.707 31.3768 6.94467 31.8521 7.42C32.3428 7.88 32.5881 8.317 32.5881 8.731C32.3735 9.237 32.0591 9.84267 31.6451 10.548C31.5225 11.2533 31.4611 12.2423 31.4611 13.515C31.4611 14.7877 31.6221 15.424 31.9441 15.424C32.3428 15.424 33.3088 14.6267 34.8421 13.032C35.1181 12.7253 35.3175 12.572 35.4401 12.572ZM24.5841 13.952C24.5841 15.1327 25.0211 15.723 25.8951 15.723C26.8305 15.7077 27.6048 15.2093 28.2181 14.228C28.4328 13.8907 28.6091 13.4767 28.7471 12.986C28.7471 11.2687 28.9005 9.79667 29.2071 8.57C27.9651 8.81533 26.8841 9.41333 25.9641 10.364C25.0441 11.3147 24.5841 12.5107 24.5841 13.952ZM41.0988 6.868C42.1262 6.85267 42.8928 7.04433 43.3988 7.443C43.9048 7.82633 44.1578 8.386 44.1578 9.122C44.1578 9.84267 43.9355 10.4637 43.4908 10.985C43.0615 11.491 42.5325 11.8513 41.9038 12.066C42.3485 12.526 42.7472 12.9937 43.0998 13.469C43.4678 13.9443 43.6518 14.4427 43.6518 14.964C43.6518 15.9913 43.2455 16.7887 42.4328 17.356C41.6202 17.908 40.4855 18.184 39.0288 18.184C37.5875 18.184 36.5065 17.9003 35.7858 17.333C35.0652 16.7503 34.7048 16.0987 34.7048 15.378C34.7048 14.642 34.8812 13.975 35.2338 13.377C35.6018 12.779 35.9928 12.48 36.4068 12.48C36.6522 12.48 36.8285 12.572 36.9358 12.756C37.0432 12.9247 37.2425 13.4307 37.5338 14.274C37.6412 14.5807 37.8175 14.872 38.0628 15.148C38.6302 15.7767 39.5272 16.091 40.7538 16.091C40.5698 15.5083 40.2708 15.01 39.8568 14.596C39.4582 14.1667 39.0595 13.7527 38.6608 13.354C38.2622 12.9553 37.9095 12.5337 37.6028 12.089C37.2962 11.629 37.1428 11.0923 37.1428 10.479C37.1428 9.375 37.5568 8.478 38.3848 7.788C39.1668 7.17467 40.0715 6.868 41.0988 6.868ZM41.0068 11.123C41.6202 10.4637 41.9268 9.93467 41.9268 9.536C41.9268 9.352 41.8578 9.191 41.7198 9.053C41.5972 8.89967 41.4132 8.823 41.1678 8.823C40.9225 8.823 40.6848 8.85367 40.4548 8.915C40.2402 8.97633 40.0638 9.02233 39.9258 9.053C39.9258 9.63567 40.2862 10.3257 41.0068 11.123ZM53.8953 10.272C53.8953 9.72 53.5656 9.444 52.9063 9.444C52.2623 9.444 51.626 9.95 50.9973 10.962C50.3686 11.9587 49.9776 12.9783 49.8243 14.021C49.855 14.3737 49.8856 14.7263 49.9163 15.079C49.947 15.4317 49.9623 15.7767 49.9623 16.114C49.9623 16.9267 49.694 17.4787 49.1573 17.77C48.912 17.908 48.6743 18.0383 48.4443 18.161C48.2296 18.2837 47.9766 18.345 47.6853 18.345C47.394 18.345 47.1333 18.1533 46.9033 17.77C46.6886 17.3713 46.5813 16.758 46.5813 15.93C46.5813 13.6147 46.75 11.606 47.0873 9.904C47.6086 7.26667 48.6436 4.44533 50.1923 1.44C50.407 1.026 50.7213 0.826666 51.1353 0.841999C51.5493 0.841999 51.8866 1.12567 52.1473 1.693C52.408 2.26033 52.5306 2.73567 52.5153 3.119C52.5153 3.50233 52.454 3.878 52.3313 4.246C52.224 4.59867 52.0783 4.95133 51.8943 5.304C51.7256 5.64133 51.5263 5.994 51.2963 6.362C51.0816 6.71467 50.867 7.098 50.6523 7.512L50.3073 9.168C50.9053 8.17133 51.7103 7.50433 52.7223 7.167C53.0903 7.04433 53.4966 6.983 53.9413 6.983C54.984 6.983 55.7736 7.22067 56.3103 7.696C56.847 8.156 57.1153 8.81533 57.1153 9.674C57.1153 10.5173 57.0003 11.376 56.7703 12.25C56.5556 13.124 56.3946 13.7527 56.2873 14.136C56.1953 14.504 56.1493 14.8107 56.1493 15.056C56.1493 15.3013 56.2336 15.424 56.4023 15.424C56.6323 15.424 56.916 15.2783 57.2533 14.987C57.5906 14.6957 57.928 14.3813 58.2653 14.044C58.6026 13.6913 58.9093 13.3693 59.1853 13.078C59.4766 12.7867 59.676 12.641 59.7833 12.641C59.998 12.641 60.1053 12.9017 60.1053 13.423C60.1053 14.4963 59.5763 15.5313 58.5183 16.528C56.7396 17.5707 55.605 18.092 55.1143 18.092C55.0683 18.092 55.0376 18.0843 55.0223 18.069C53.7956 18.069 53.1823 17.0877 53.1823 15.125C53.1823 14.2817 53.259 13.5073 53.4123 12.802C53.581 12.0967 53.7036 11.583 53.7803 11.261C53.857 10.939 53.8953 10.6093 53.8953 10.272ZM71.6452 14.274C72.0438 13.9827 72.4042 13.63 72.7262 13.216C73.0482 12.7867 73.3165 12.572 73.5312 12.572C73.7612 12.572 73.8762 12.9093 73.8762 13.584C73.8762 14.2433 73.6845 14.872 73.3012 15.47C72.9332 16.0527 72.4425 16.5433 71.8292 16.942C70.5718 17.77 69.0845 18.184 67.3672 18.184C65.2818 18.184 63.6642 17.6627 62.5142 16.62C61.3642 15.5773 60.7892 14.1283 60.7892 12.273C60.7892 9.98833 61.3412 7.81867 62.4452 5.764C62.8132 5.08933 63.2272 4.46833 63.6872 3.901C63.3345 3.487 63.0508 3.05767 62.8362 2.613C62.6368 2.153 62.5372 1.808 62.5372 1.578C62.5372 1.164 62.6905 0.956999 62.9972 0.956999C63.2118 0.972333 63.4572 1.118 63.7332 1.394L64.4462 2.084C64.6302 2.268 64.8218 2.42133 65.0212 2.544C66.5392 1.256 68.1722 0.611999 69.9202 0.611999C71.6835 0.611999 72.8258 1.10267 73.3472 2.084C73.5312 2.452 73.6232 2.90433 73.6232 3.441C73.6232 4.25367 73.2705 4.936 72.5652 5.488C71.8598 6.04 70.9092 6.316 69.7132 6.316C68.5325 6.316 67.3058 6.07067 66.0332 5.58C64.9445 7.43533 64.4002 9.375 64.4002 11.399C64.4002 14.205 65.5195 15.608 67.7582 15.608C69.1382 15.608 70.4338 15.1633 71.6452 14.274ZM67.1372 4.154C67.9192 4.41467 68.7702 4.545 69.6902 4.545C70.6102 4.545 71.0702 4.292 71.0702 3.786C71.0702 3.188 70.6945 2.889 69.9432 2.889C68.9158 2.889 67.9805 3.31067 67.1372 4.154ZM87.9942 12.572C88.2702 12.572 88.4082 12.9247 88.4082 13.63C88.4082 14.0133 88.2472 14.481 87.9252 15.033C87.6032 15.5697 87.1816 16.068 86.6602 16.528C86.1542 16.9727 85.5869 17.3407 84.9582 17.632C84.3296 17.9233 83.7162 18.069 83.1182 18.069C82.3056 18.069 81.7612 17.356 81.4852 15.93C81.0866 16.5893 80.5652 17.1337 79.9212 17.563C79.2772 17.977 78.4109 18.184 77.3222 18.184C76.2489 18.184 75.3826 17.8467 74.7232 17.172C74.0639 16.4973 73.7419 15.677 73.7572 14.711C73.7572 12.1043 74.6236 10.0497 76.3562 8.547C77.0922 7.91833 77.7746 7.50433 78.4032 7.305C79.0472 7.10567 79.7219 7.006 80.4272 7.006C81.1326 7.006 81.7076 7.12867 82.1522 7.374C82.3669 6.92933 82.6122 6.707 82.8882 6.707C83.4249 6.707 83.9309 6.94467 84.4062 7.42C84.8969 7.88 85.1422 8.317 85.1422 8.731C84.9276 9.237 84.6132 9.84267 84.1992 10.548C84.0766 11.2533 84.0152 12.2423 84.0152 13.515C84.0152 14.7877 84.1762 15.424 84.4982 15.424C84.8969 15.424 85.8629 14.6267 87.3962 13.032C87.6722 12.7253 87.8716 12.572 87.9942 12.572ZM77.1382 13.952C77.1382 15.1327 77.5752 15.723 78.4492 15.723C79.3846 15.7077 80.1589 15.2093 80.7722 14.228C80.9869 13.8907 81.1632 13.4767 81.3012 12.986C81.3012 11.2687 81.4546 9.79667 81.7612 8.57C80.5192 8.81533 79.4382 9.41333 78.5182 10.364C77.5982 11.3147 77.1382 12.5107 77.1382 13.952ZM91.7669 14.136L91.9049 16.942C91.9049 17.31 91.7133 17.6397 91.3299 17.931C90.9466 18.2223 90.4253 18.368 89.7659 18.368C89.3826 18.368 89.1143 18.1687 88.9609 17.77C88.8229 17.3713 88.7539 16.7887 88.7539 16.022C88.7539 14.412 88.8306 13.1547 88.9839 12.25C89.1526 11.33 89.4746 10.4023 89.9499 9.467C89.2446 8.79233 88.8919 8.20967 88.8919 7.719C88.8919 6.69167 89.4439 6.178 90.5479 6.178C91.1153 6.178 91.6136 6.477 92.0429 7.075C92.3496 7.489 92.5719 7.972 92.7099 8.524C92.9246 8.60067 93.1929 8.639 93.5149 8.639C93.9596 8.639 94.4733 8.49333 95.0559 8.202L95.6539 7.903C95.8379 7.811 95.9989 7.765 96.1369 7.765C96.5816 7.765 97.0263 8.41667 97.4709 9.72C97.3329 10.318 97.1796 10.893 97.0109 11.445C96.8576 11.997 96.6736 12.664 96.4589 13.446C96.2443 14.228 96.1293 14.757 96.1139 15.033C96.1139 15.2937 96.1983 15.424 96.3669 15.424C96.5969 15.424 96.8806 15.2783 97.2179 14.987C97.5553 14.6957 97.8926 14.3813 98.2299 14.044C98.5673 13.6913 98.8739 13.3693 99.1499 13.078C99.4413 12.7867 99.6406 12.641 99.7479 12.641C99.9626 12.641 100.07 12.9017 100.07 13.423C100.07 14.481 99.6023 15.5237 98.6669 16.551C97.7469 17.5783 96.6889 18.0843 95.4929 18.069C94.7876 18.069 94.2586 17.7853 93.9059 17.218C93.5533 16.6507 93.3693 15.9607 93.3539 15.148C93.3539 13.538 93.7143 12.0123 94.4349 10.571C94.0976 10.709 93.7143 10.778 93.2849 10.778C92.8709 10.778 92.5719 10.7627 92.3879 10.732C92.2499 11.3147 92.1119 11.905 91.9739 12.503C91.8359 13.0857 91.7669 13.63 91.7669 14.136ZM114.193 12.572C114.469 12.572 114.607 12.9247 114.607 13.63C114.607 14.0133 114.446 14.481 114.124 15.033C113.802 15.5697 113.38 16.068 112.859 16.528C112.353 16.9727 111.785 17.3407 111.157 17.632C110.528 17.9233 109.915 18.069 109.317 18.069C108.473 18.069 107.921 17.379 107.661 15.999C106.741 17.4557 105.376 18.184 103.567 18.184C102.463 18.184 101.581 17.8467 100.922 17.172C100.262 16.4973 99.9403 15.677 99.9557 14.711C99.9557 12.1043 100.822 10.0497 102.555 8.547C103.751 7.51967 104.993 7.006 106.281 7.006C106.863 7.006 107.323 7.052 107.661 7.144L108.19 7.282C108.818 4.32267 109.547 2.34467 110.375 1.348C110.651 1.01067 110.927 0.841999 111.203 0.841999C111.647 0.841999 112.061 1.14867 112.445 1.762C112.782 2.268 112.951 2.705 112.951 3.073C112.951 3.441 112.897 3.80133 112.79 4.154C112.682 4.50667 112.544 4.83633 112.376 5.143C112.222 5.43433 112.046 5.72567 111.847 6.017C111.647 6.293 111.448 6.57667 111.249 6.868C110.804 8.524 110.474 10.3793 110.26 12.434C110.198 13.0167 110.168 13.4843 110.168 13.837C110.168 14.895 110.344 15.424 110.697 15.424C111.095 15.424 112.061 14.6267 113.595 13.032C113.871 12.7253 114.07 12.572 114.193 12.572ZM103.337 13.952C103.337 15.1327 103.774 15.723 104.648 15.723C105.169 15.723 105.69 15.5237 106.212 15.125C106.748 14.7263 107.162 14.0593 107.454 13.124C107.484 11.744 107.645 10.226 107.937 8.57C106.71 8.81533 105.637 9.41333 104.717 10.364C103.797 11.3147 103.337 12.5107 103.337 13.952Z" fill="black"/>
</svg>
